<svg t="1719545391276" class="icon" viewBox="0 0 1024 1024" version="1.1" xmlns="http://www.w3.org/2000/svg" p-id="3731" width="200" height="200"><path d="M883.2 262.4h-102.4v64h102.4c25.6 0 44.8 19.2 44.8 44.8v416c0 25.6-19.2 44.8-44.8 44.8H768v89.6l-6.4 6.4-140.8-102.4h-128c-25.6 0-44.8-19.2-44.8-44.8V768H384v12.8c0 57.6 51.2 108.8 108.8 108.8h102.4l128 89.6c12.8 6.4 25.6 12.8 38.4 12.8 12.8 0 25.6-6.4 32-6.4 19.2-12.8 32-38.4 32-64V896h51.2c57.6 0 108.8-51.2 108.8-108.8V371.2c6.4-57.6-44.8-108.8-102.4-108.8z" fill="#2c2c2c" p-id="3732"></path><path d="M633.6 723.2c57.6 0 108.8-51.2 108.8-108.8V204.8c0-57.6-51.2-108.8-108.8-108.8H140.8c-57.6 0-108.8 51.2-108.8 108.8v416c0 57.6 51.2 108.8 108.8 108.8h32v38.4c0 25.6 12.8 51.2 38.4 64 6.4-6.4 19.2 0 25.6 0 12.8 0 32-6.4 38.4-12.8l128-89.6h230.4z m-396.8 44.8l-6.4-102.4H140.8c-25.6 0-44.8-19.2-44.8-44.8V204.8c0-25.6 19.2-44.8 44.8-44.8h492.8c25.6 0 44.8 19.2 44.8 44.8v416c0 25.6-19.2 44.8-44.8 44.8H384L236.8 768z" fill="#2c2c2c" p-id="3733"></path><path d="M537.6 243.2c-6.4 0-12.8 0-19.2 6.4-6.4 6.4-6.4 12.8-6.4 25.6V512c0 12.8 0 19.2 6.4 25.6 6.4 6.4 12.8 6.4 19.2 6.4 6.4 0 19.2 0 19.2-6.4 6.4-6.4 12.8-12.8 12.8-25.6V275.2c0-12.8 0-19.2-6.4-25.6-6.4-6.4-12.8-6.4-25.6-6.4zM377.6 294.4c-6.4-6.4-6.4-12.8-12.8-19.2 0-6.4-6.4-12.8-6.4-19.2l-12.8-12.8c-6.4 0-12.8-6.4-19.2-6.4-6.4 0-12.8 0-19.2 6.4-6.4 6.4-12.8 6.4-19.2 12.8 0 6.4-6.4 12.8-6.4 19.2s-6.4 19.2-6.4 19.2l-76.8 192c-6.4 12.8-6.4 19.2-6.4 19.2v12.8c0 6.4 0 12.8 6.4 19.2 6.4 6.4 12.8 6.4 19.2 6.4 6.4 0 12.8 0 19.2-6.4s6.4-12.8 12.8-32l12.8-38.4H384l12.8 38.4c0 6.4 6.4 12.8 6.4 12.8l6.4 12.8 6.4 6.4h12.8c6.4 0 12.8 0 19.2-6.4s6.4-12.8 6.4-19.2c0-6.4 0-19.2-6.4-32L377.6 294.4zM281.6 428.8l44.8-121.6 44.8 121.6H281.6z" fill="#2c2c2c" p-id="3734"></path></svg>