<svg t="1719412171984" class="icon" viewBox="0 0 1024 1024" version="1.1" xmlns="http://www.w3.org/2000/svg" p-id="8729" width="200" height="200"><path d="M354.40128 0c-87.04 0-157.44 70.55872-157.44 157.59872v275.68128H78.72c-21.6576 0-39.36256 17.69984-39.36256 39.36256v236.31872c0 21.6576 17.69984 39.35744 39.36256 39.35744h118.24128v118.08256c0 87.04 70.4 157.59872 157.44 157.59872h472.63744c87.04 0 157.59872-70.55872 157.59872-157.59872V315.0336c0-41.74848-38.9888-81.93024-107.52-149.27872l-29.11744-29.12256L818.87744 107.52C751.5392 38.9888 711.39328 0 669.59872 0H354.4064z m0 78.72h287.20128c28.35456 7.0912 27.99616 42.1376 27.99616 76.8v120.16128c0 21.6576 17.69984 39.35744 39.36256 39.35744h118.07744c39.38816 0 78.87872-0.0256 78.87872 39.36256v512c0 43.32032-35.55328 78.87872-78.87872 78.87872H354.4064c-43.32544 0-78.72-35.5584-78.72-78.87872v-118.08256h393.91744c21.66272 0 39.36256-17.69472 39.36256-39.35744V472.64256c0-21.66272-17.69984-39.36256-39.36256-39.36256H275.68128V157.59872c0-43.32032 35.39456-78.87872 78.72-78.87872z m-25.92256 427.67872h20.16256l65.28 176.64h-23.04l-19.2-54.71744h-65.28l-19.2 54.71744h-23.04l64.31744-176.64z m95.04256 0.96256H487.8336v12.47744l-21.12 4.80256v141.11744l21.12 4.80256v12.47744H423.5264v-12.47744l21.12-4.80256V524.6464l-21.12-4.80256v-12.47744z m-84.48 23.04c-1.92 8.96-4.80256 18.23744-8.64256 27.83744l-17.28 50.88256h51.84l-18.23744-50.88256c-3.84-10.88-6.4-20.15744-7.68-27.83744z" p-id="8730" data-spm-anchor-id="a313x.search_index.0.i7.15b63a81xc82fQ" class="selected" fill="#6991c7"></path></svg>