<svg xmlns="http://www.w3.org/2000/svg" xmlns:xlink="http://www.w3.org/1999/xlink" width="24" height="24" viewBox="0 0 24 24" fill="none">
<path d="M2 6L2 17C2 19.7614 4.23858 22 7 22L16.9812 22C19.739 22 21.976 19.7671 21.9812 17.0094L21.9925 11.0094C21.9977 8.2443 19.7576 6 16.9925 6L13.4 6L11.5763 4.17364C10.826 3.42223 9.80773 3 8.74586 3L5 3C3.34315 3 2 4.34315 2 6ZM8.74586 5L5 5C4.44772 5 4 5.44772 4 6L4 9L8.74586 9C9.2768 9 9.78595 8.78889 10.1611 8.41318L11.5722 7L10.1611 5.58682C9.78595 5.21111 9.27679 5 8.74586 5ZM7 20L16.9812 20C18.6359 20 19.9781 18.6603 19.9812 17.0056L19.9925 11.0056C19.9956 9.34658 18.6515 8 16.9925 8L13.4 8L11.5763 9.82636C10.826 10.5778 9.80773 11 8.74586 11L4 11L4 17C4 18.6569 5.34315 20 7 20Z" fill-rule="evenodd"  fill="#0F1729" >
</path>
</svg>
