<svg t="1719459876376" class="icon" viewBox="0 0 1024 1024" version="1.1" xmlns="http://www.w3.org/2000/svg" p-id="2378" width="200" height="200"><path d="M695.7 742.9c-10.1 0-18.3-8.2-18.3-18.3V376.1c0-10.1 8.2-18.3 18.3-18.3S714 366 714 376.1v348.5c0 10.1-8.2 18.3-18.3 18.3zM512.3 742.9c-10.1 0-18.3-8.2-18.3-18.3V376.1c0-10.1 8.2-18.3 18.3-18.3 10.1 0 18.3 8.2 18.3 18.3v348.5c0 10.1-8.2 18.3-18.3 18.3zM328.9 742.9c-10.1 0-18.3-8.2-18.3-18.3V376.1c0-10.1 8.2-18.3 18.3-18.3s18.3 8.2 18.3 18.3v348.5c0 10.1-8.2 18.3-18.3 18.3zM634.6 100.9c11.6 0 24.5 15.1 24.5 36.7v55H365.5v-55c0-21.6 12.9-36.7 24.5-36.7h244.6m0-36.6H390c-33.8 0-61.1 32.8-61.1 73.4v91.7h366.8v-91.7c0-40.6-27.4-73.4-61.1-73.4z" fill="#FF7878" p-id="2379"></path><path d="M939 229.3H85.5c-10.1 0-18.3-8.2-18.3-18.3 0-10.1 8.2-18.3 18.3-18.3H939c10.1 0 18.3 8.2 18.3 18.3 0.1 10.1-8.1 18.3-18.3 18.3z" fill="#FF7878" p-id="2380"></path><path d="M798.1 958.5H226.5c-49.5 0-89.8-44.6-89.8-99.4V211h36.7v648.2c0 34.6 23.8 62.7 53.1 62.7h571.6c29.3 0 53.1-28.1 53.1-62.7V211h36.7v648.2c0 54.8-40.3 99.3-89.8 99.3z" fill="#FF7878" p-id="2381"></path></svg>