<svg t="1719494671501" class="icon" viewBox="0 0 1024 1024" version="1.1" xmlns="http://www.w3.org/2000/svg" p-id="1523" data-spm-anchor-id="a313x.search_index.0.i4.47a23a81PmOD6e" width="200" height="200"><path d="M419.700851 264.72522l338.430896 0c8.502651 0 15.383362-6.912433 15.383362-15.438621 0-8.526187-6.880711-15.438621-15.383362-15.438621L419.700851 233.847979c-8.502651 0-15.383362 6.912433-15.383362 15.438621C404.317489 257.811764 411.197176 264.72522 419.700851 264.72522z" fill="#Accbee" p-id="1524"></path><path d="M419.700851 341.919347l338.430896 0c8.502651 0 15.383362-6.912433 15.383362-15.438621 0-8.526187-6.880711-15.438621-15.383362-15.438621L419.700851 311.042105c-8.502651 0-15.383362 6.912433-15.383362 15.438621C404.317489 335.00589 411.197176 341.919347 419.700851 341.919347z" fill="#Accbee" p-id="1525"></path><path d="M281.251615 341.919347l76.915787 0c8.502651 0 15.383362-6.912433 15.383362-15.438621l0-77.194126c0-8.526187-6.880711-15.438621-15.383362-15.438621l-76.915787 0c-8.502651 0-15.383362 6.912433-15.383362 15.438621l0 77.194126C265.868253 335.00589 272.747941 341.919347 281.251615 341.919347zM296.634977 264.72522l46.150086 0 0 46.315862-46.150086 0L296.634977 264.72522z" fill="#Accbee" p-id="1526"></path><path d="M419.700851 635.255185l338.430896 0c8.502651 0 15.383362-6.912433 15.383362-15.438621 0-8.526187-6.880711-15.438621-15.383362-15.438621L419.700851 604.377944c-8.502651 0-15.383362 6.912433-15.383362 15.438621C404.317489 628.342752 411.197176 635.255185 419.700851 635.255185z" fill="#Accbee" p-id="1527"></path><path d="M419.700851 712.449311l338.430896 0c8.502651 0 15.383362-6.912433 15.383362-15.438621 0-8.526187-6.880711-15.438621-15.383362-15.438621L419.700851 681.57207c-8.502651 0-15.383362 6.912433-15.383362 15.438621C404.317489 705.536878 411.197176 712.449311 419.700851 712.449311z" fill="#Accbee" p-id="1528"></path><path d="M281.251615 712.449311l76.915787 0c8.502651 0 15.383362-6.912433 15.383362-15.438621l0-77.194126c0-8.526187-6.880711-15.438621-15.383362-15.438621l-76.915787 0c-8.502651 0-15.383362 6.912433-15.383362 15.438621l0 77.194126C265.868253 705.536878 272.747941 712.449311 281.251615 712.449311zM296.634977 635.255185l46.150086 0 0 46.315862-46.150086 0L296.634977 635.255185z" fill="#Accbee" p-id="1529"></path><path d="M419.700851 449.990714l338.430896 0c8.502651 0 15.383362-6.912433 15.383362-15.438621 0-8.526187-6.880711-15.438621-15.383362-15.438621L419.700851 419.113473c-8.502651 0-15.383362 6.912433-15.383362 15.438621C404.317489 443.077258 411.197176 449.990714 419.700851 449.990714z" fill="#Accbee" p-id="1530"></path><path d="M419.700851 527.183817l338.430896 0c8.502651 0 15.383362-6.912433 15.383362-15.438621 0-8.526187-6.880711-15.438621-15.383362-15.438621L419.700851 496.306576c-8.502651 0-15.383362 6.912433-15.383362 15.438621C404.317489 520.271384 411.197176 527.183817 419.700851 527.183817z" fill="#Accbee" p-id="1531"></path><path d="M281.251615 527.183817l76.915787 0c8.502651 0 15.383362-6.912433 15.383362-15.438621l0-77.194126c0-8.526187-6.880711-15.438621-15.383362-15.438621l-76.915787 0c-8.502651 0-15.383362 6.912433-15.383362 15.438621l0 77.194126C265.868253 520.271384 272.747941 527.183817 281.251615 527.183817zM296.634977 449.990714l46.150086 0 0 46.315862-46.150086 0L296.634977 449.990714z" fill="#Accbee" p-id="1532"></path><path d="M842.739726 64.021106 181.260274 64.021106c-12.739139 0-23.074531 10.365068-23.074531 23.158443l0 849.13232c0 12.792351 10.335393 23.158443 23.074531 23.158443l521.242502 0c6.069229 0 11.897981-2.397606 16.20917-6.67912l140.236951-138.956795c4.386914-4.350075 6.865361-10.282181 6.865361-16.479323L865.814258 87.179548C865.814258 74.386174 855.478865 64.021106 842.739726 64.021106zM727.365023 879.137705 727.365023 820.520679l59.153238 0L727.365023 879.137705zM819.664172 774.204817 704.290491 774.204817c-12.739139 0-23.074531 10.365068-23.074531 23.158443l0 115.79119L204.334805 913.154449 204.334805 110.336968l615.329367 0L819.664172 774.204817z" fill="#Accbee" p-id="1533"></path></svg>