<?xml version="1.0" standalone="no"?><!DOCTYPE svg PUBLIC "-//W3C//DTD SVG 1.1//EN" "http://www.w3.org/Graphics/SVG/1.1/DTD/svg11.dtd"><svg t="1716796745519" class="icon" viewBox="0 0 1024 1024" version="1.1" xmlns="http://www.w3.org/2000/svg" p-id="2623" xmlns:xlink="http://www.w3.org/1999/xlink" width="200" height="200"><path d="M608 759.616l25.92 70.08 70.08 25.92-70.08 25.92-25.92 70.08-25.92-70.08L512 855.616l70.08-25.92 25.92-70.08z m59.904-616.64a51.2 51.2 0 0 1 72.448 0l144.768 144.832a51.2 51.2 0 0 1 0 72.384l-450.88 450.944a51.2 51.2 0 0 1-36.16 14.976H253.248a51.2 51.2 0 0 1-51.2-51.2V630.08a51.2 51.2 0 0 1 14.976-36.224zM832 567.68l34.56 93.44 93.44 34.56-93.44 34.56-34.56 93.44-34.56-93.44-93.44-34.56 93.44-34.56 34.56-93.44z m-127.936-352.256l-425.28 425.344v108.544h108.672l425.216-425.28-108.608-108.608zM192 247.616l34.56 93.44 93.44 34.56-93.44 34.56L192 503.616l-34.56-93.44L64 375.616l93.44-34.56 34.56-93.44z" fill="#6462E9" p-id="2624"></path></svg>