<svg xmlns="http://www.w3.org/2000/svg" xmlns:xlink="http://www.w3.org/1999/xlink" width="24" height="24" viewBox="0 0 24 24" fill="none">
<path d="M12 20C16.4183 20 20 16.4183 20 12C20 7.58172 16.4183 4 12 4C7.58172 4 4 7.58172 4 12C4 16.4183 7.58172 20 12 20ZM2 12C2 17.5228 6.47715 22 12 22C17.5228 22 22 17.5228 22 12C22 6.47715 17.5228 2 12 2C6.47715 2 2 6.47715 2 12ZM11.8284 6.75736C11.2761 6.75736 10.8284 7.20507 10.8284 7.75736L10.8284 13.4142C10.8284 13.8294 11.085 14.2014 11.4731 14.349L15.6447 15.9347C16.1609 16.131 16.7385 15.8716 16.9347 15.3553C17.131 14.8391 16.8716 14.2615 16.3553 14.0653L12.8284 12.7245L12.8284 7.75736C12.8284 7.20507 12.3807 6.75736 11.8284 6.75736Z" fill-rule="evenodd"  fill="#0F1729" >
</path>
</svg>
