<svg xmlns="http://www.w3.org/2000/svg" xmlns:xlink="http://www.w3.org/1999/xlink" width="24" height="24" viewBox="0 0 24 24" fill="none">
<path d="M2 6.5L2 17.5C2 19.9853 4.01472 22 6.5 22L12 22C14.2091 22 16 20.2091 16 18L16 17C16 16.4477 15.5523 16 15 16C14.4477 16 14 16.4477 14 17L14 18C14 19.1046 13.1046 20 12 20L6.5 20C5.11929 20 4 18.8807 4 17.5L4 6.5C4 5.11929 5.11929 4 6.5 4L12 4C13.1046 4 14 4.89543 14 6L14 7C14 7.55228 14.4477 8 15 8C15.5523 8 16 7.55228 16 7L16 6C16 3.79086 14.2091 2 12 2L6.5 2C4.01472 2 2 4.01472 2 6.5ZM18.2929 8.29289C17.9024 8.68342 17.9024 9.31658 18.2929 9.70711L19.5858 11L11 11C10.4477 11 10 11.4477 10 12C10 12.5523 10.4477 13 11 13L19.5858 13L18.2929 14.2929C17.9024 14.6834 17.9024 15.3166 18.2929 15.7071C18.6834 16.0976 19.3166 16.0976 19.7071 15.7071L22.7071 12.7071C23.0976 12.3166 23.0976 11.6834 22.7071 11.2929L19.7071 8.29289C19.3166 7.90237 18.6834 7.90237 18.2929 8.29289Z" fill-rule="evenodd"  fill="#0F1729" >
</path>
</svg>
