<svg xmlns="http://www.w3.org/2000/svg" xmlns:xlink="http://www.w3.org/1999/xlink" width="24" height="24" viewBox="0 0 24 24" fill="none">
<path d="M13.8369 2.7372C13.1427 1.12528 10.8572 1.12528 10.1631 2.7372L8.57704 6.42011C8.43227 6.75629 8.1154 6.98651 7.75094 7.02031L3.75818 7.39063C2.01063 7.55271 1.30438 9.72633 2.62291 10.8846L5.63545 13.5311C5.91044 13.7727 6.03147 14.1452 5.95099 14.5023L5.06936 18.414C4.68348 20.1261 6.53248 21.4695 8.04154 20.5734L11.4894 18.5262C11.8041 18.3393 12.1958 18.3393 12.5105 18.5262L15.9584 20.5734C17.4675 21.4695 19.3165 20.1261 18.9306 18.414L18.049 14.5023C17.9685 14.1452 18.0895 13.7727 18.3645 13.5311L21.377 10.8846C22.6956 9.72633 21.9893 7.55271 20.2418 7.39063L16.249 7.02031C15.8846 6.98651 15.5677 6.75629 15.4229 6.42011L13.8369 2.7372ZM12 3.52826L13.586 7.21117C14.0203 8.21969 14.9709 8.91035 16.0643 9.01176L20.0571 9.38208L17.0445 12.0286C16.2196 12.7533 15.8565 13.8708 16.0979 14.942L16.9795 18.8538L13.5317 16.8065C12.5875 16.2458 11.4125 16.2458 10.4683 16.8065L7.02042 18.8538L7.90205 14.942C8.14348 13.8708 7.78038 12.7533 6.95542 12.0286L3.94288 9.38208L7.93564 9.01176C9.02902 8.91035 9.97963 8.21969 10.4139 7.21117L12 3.52826Z" fill-rule="evenodd"  fill="#0F1729" >
</path>
</svg>
