<svg xmlns="http://www.w3.org/2000/svg" xmlns:xlink="http://www.w3.org/1999/xlink" width="80.7998046875" height="71" viewBox="0 0 80.7998046875 71" fill="none">
<path d="M0.27472 24.336L8.65449 61.9461C9.28796 64.4822 10.7351 66.7407 12.7745 68.3758C14.8139 70.011 17.3332 70.9325 19.9463 71L60.8464 71C63.4603 70.934 65.9813 70.0131 68.0215 68.378C70.0617 66.7421 71.5096 64.4836 72.1431 61.9461L80.5229 24.3388C80.8865 23.0409 80.8921 21.6692 80.539 20.3692C80.1859 19.0692 79.487 17.8885 78.5158 16.9541C77.488 16.0829 76.2437 15.5057 74.9137 15.2849C73.5846 15.0641 72.2207 15.2075 70.9658 15.6995L60.3528 19.3113L47.1226 3.17938C46.3089 2.18396 45.2844 1.38166 44.1225 0.83212C42.9606 0.28187 41.6912 -0.00213 40.4057 0C39.1201 -0.00284 37.8508 0.28045 36.6889 0.82999C35.527 1.37882 34.5024 2.18041 33.6888 3.17512L20.5886 19.2715L9.83417 15.6995C8.58015 15.2075 7.21625 15.0641 5.88709 15.2849C4.55874 15.505 3.31361 16.0815 2.28583 16.952C1.31542 17.8863 0.616504 19.0671 0.2626 20.3671C-0.092112 21.6671 -0.087264 23.0388 0.27472 24.336ZM62.9925 27.6417C61.3248 28.187 59.5318 28.2182 57.8463 27.7312C56.16 27.2434 54.6604 26.2608 53.5413 24.9096L40.2974 8.77134L27.2587 24.9075C26.1404 26.2601 24.6408 27.2441 22.9545 27.7312C21.269 28.219 19.4752 28.1863 17.8075 27.6396L9.43259 24.8635L17.2629 60.0284C17.4528 60.6084 17.8083 61.1211 18.285 61.503C18.761 61.8857 19.3387 62.1207 19.9463 62.1804L60.8464 62.1804C61.4549 62.1207 62.0326 61.8857 62.5093 61.5037C62.9868 61.1211 63.3415 60.6084 63.5322 60.0284L71.3714 24.8678L62.9925 27.6417Z" fill-rule="evenodd"  fill="#1A8CFC" >
</path>
<path d="M23.7305 47.37C23.7305 48.5396 24.1949 49.6613 25.022 50.4883C25.8491 51.3153 26.9706 51.78 28.1403 51.78L52.7107 51.78C53.29 51.78 53.8633 51.6659 54.3982 51.4443C54.9334 51.2226 55.4196 50.8978 55.8289 50.4883C56.2383 50.0788 56.5632 49.5926 56.7849 49.0576C57.0063 48.5226 57.1205 47.9491 57.1205 47.37C57.1205 46.7908 57.0063 46.2174 56.7849 45.6823C56.5632 45.1473 56.2383 44.6612 55.8289 44.2517C55.4196 43.8421 54.9334 43.5173 54.3982 43.2957C53.8633 43.074 53.29 42.96 52.7107 42.96L28.1403 42.96C27.561 42.96 26.9877 43.074 26.4528 43.2957C25.9175 43.5173 25.4314 43.8421 25.022 44.2517C24.6126 44.6612 24.2877 45.1473 24.066 45.6823C23.8447 46.2174 23.7305 46.7908 23.7305 47.37Z"   fill="#1A8CFC" >
</path>
</svg>
