<svg xmlns="http://www.w3.org/2000/svg" xmlns:xlink="http://www.w3.org/1999/xlink" width="24" height="24" viewBox="0 0 24 24" fill="none">
<path d="M1 3C1 3.55228 1.44772 4 2 4C2.76395 4 3.44219 4.48885 3.68377 5.21359L4.035 6.26729L5.19125 11.4704C5.33602 12.1219 5.45649 12.6641 5.58939 13.1043C5.72844 13.5649 5.89941 13.9803 6.17692 14.36C6.59418 14.931 7.15536 15.3812 7.80328 15.6646C8.23421 15.8532 8.67678 15.93 9.15656 15.9658C9.61512 16 10.1705 16 10.8379 16L16.1621 16C16.8295 16 17.3849 16 17.8434 15.9658C18.3232 15.93 18.7658 15.8532 19.1967 15.6646C19.8446 15.3812 20.4058 14.931 20.8231 14.36C21.1006 13.9803 21.2716 13.5649 21.4106 13.1043C21.5435 12.6641 21.664 12.1218 21.8088 11.4704L22.115 10.0924C22.2573 9.45209 22.3783 8.90755 22.4369 8.45816C22.4978 7.99036 22.5091 7.51168 22.3477 7.03605C22.1211 6.36838 21.6667 5.80183 21.064 5.43584C20.6347 5.17512 20.165 5.08226 19.6951 5.04029C19.2437 4.99996 18.6859 4.99998 18.03 5L5.72076 5L5.58114 4.58114C5.06733 3.03971 3.62481 2 2 2C1.44772 2 1 2.44772 1 3ZM7.50404 12.5263C7.60908 12.8742 7.69899 13.0531 7.79172 13.18C8.00035 13.4655 8.28094 13.6906 8.6049 13.8323C8.74888 13.8953 8.94301 13.9443 9.30546 13.9713C9.68076 13.9994 10.1612 14 10.8745 14L16.1255 14C16.8388 14 17.3192 13.9994 17.6945 13.9713C18.057 13.9443 18.2511 13.8953 18.3951 13.8323C18.7191 13.6906 18.9997 13.4655 19.2083 13.18C19.301 13.0531 19.3909 12.8742 19.496 12.5263C19.6047 12.166 19.7096 11.6971 19.8643 11.0008L20.153 9.70159C20.3075 9.00651 20.408 8.54985 20.4536 8.19974C20.4982 7.858 20.4722 7.73312 20.4537 7.67868C20.3782 7.45613 20.2267 7.26728 20.0259 7.14528C19.9767 7.11544 19.8605 7.06302 19.5172 7.03235C19.1655 7.00094 18.6979 7 17.9859 7L6.24662 7L7.13569 11.0008C7.29042 11.6971 7.39528 12.166 7.50404 12.5263ZM11 19C11 17.8954 10.1046 17 9 17C7.89543 17 7 17.8954 7 19C7 20.1046 7.89543 21 9 21C10.1046 21 11 20.1046 11 19ZM18 17C16.8954 17 16 17.8954 16 19C16 20.1046 16.8954 21 18 21C19.1046 21 20 20.1046 20 19C20 17.8954 19.1046 17 18 17Z" fill-rule="evenodd"  fill="#0F1729" >
</path>
</svg>
