<svg xmlns="http://www.w3.org/2000/svg" xmlns:xlink="http://www.w3.org/1999/xlink" width="24" height="24" viewBox="0 0 24 24" fill="none">
<path d="M14.6035 2L9.39646 2C8.29442 1.99999 7.40556 1.99998 6.68616 2.05972C5.94535 2.12125 5.29513 2.25126 4.69513 2.56293C3.78191 3.03731 3.03731 3.78191 2.56293 4.69513C2.25126 5.29513 2.12125 5.94535 2.05972 6.68616C1.99998 7.40556 1.99999 8.29442 2 9.39646L2 14.6035C1.99999 15.7056 1.99998 16.5944 2.05972 17.3138C2.12125 18.0547 2.25126 18.7049 2.56293 19.3049C3.03731 20.2181 3.78191 20.9627 4.69513 21.4371C5.29513 21.7487 5.94535 21.8788 6.68616 21.9403C7.40557 22 8.29444 22 9.39649 22L14.6035 22C15.7056 22 16.5944 22 17.3138 21.9403C18.0547 21.8788 18.7049 21.7487 19.3049 21.4371C20.2181 20.9627 20.9627 20.2181 21.4371 19.3049C21.7487 18.7049 21.8788 18.0547 21.9403 17.3138C22 16.5944 22 15.7056 22 14.6035L22 9.39649C22 8.29444 22 7.40557 21.9403 6.68616C21.8788 5.94535 21.7487 5.29513 21.4371 4.69513C20.9627 3.78191 20.2181 3.03731 19.3049 2.56293C18.7049 2.25126 18.0547 2.12125 17.3138 2.05972C16.5944 1.99998 15.7056 1.99999 14.6035 2ZM4.33776 5.61708C4.19909 5.88403 4.10393 6.23678 4.05286 6.85168C4.0008 7.47856 4 8.28424 4 9.44L4 14.56C4 15.7158 4.0008 16.5214 4.05286 17.1483C4.10393 17.7632 4.19909 18.116 4.33776 18.3829C4.62239 18.9309 5.06915 19.3776 5.61708 19.6622C5.72641 19.719 5.85015 19.7685 6.00039 19.8107C6.02184 18.531 6.92753 17.5633 7.96833 16.9686C9.04997 16.3505 10.4775 16 12 16C13.5225 16 14.95 16.3505 16.0317 16.9686C17.0725 17.5633 17.9782 18.531 17.9996 19.8107C18.1499 19.7685 18.2736 19.719 18.3829 19.6622C18.9309 19.3776 19.3776 18.9309 19.6622 18.3829C19.8009 18.116 19.8961 17.7632 19.9471 17.1483C19.9992 16.5214 20 15.7158 20 14.56L20 9.44C20 8.28423 19.9992 7.47856 19.9471 6.85168C19.8961 6.23678 19.8009 5.88403 19.6622 5.61708C19.3776 5.06915 18.9309 4.62239 18.3829 4.33776C18.116 4.19909 17.7632 4.10393 17.1483 4.05286C16.5214 4.0008 15.7158 4 14.56 4L9.44 4C8.28423 4 7.47856 4.0008 6.85168 4.05286C6.23678 4.10393 5.88403 4.19909 5.61708 4.33776C5.06915 4.62239 4.62239 5.06915 4.33776 5.61708ZM16.0071 19.9482C15.9992 19.9605 15.9957 19.9707 15.9948 19.9737C15.9943 19.9755 15.9963 19.9694 15.9978 19.9507C15.9996 19.9296 16 19.9074 16 19.8571C16 19.5819 15.7957 19.1372 15.0394 18.7051C14.3114 18.2891 13.2389 18 12 18C10.7611 18 9.6886 18.2891 8.96061 18.7051C8.20432 19.1372 8 19.5819 8 19.8571C8 19.9074 8.0004 19.9296 8.00215 19.9507C8.00371 19.9694 8.00568 19.9755 8.00515 19.9737C8.00427 19.9707 8.00079 19.9605 7.9929 19.9482C7.9879 19.9404 7.9836 19.9356 7.98171 19.9336L7.93427 19.9929C8.36155 19.9998 8.8561 20 9.44 20L14.56 20C15.1439 20 15.6385 19.9998 16.0657 19.9929L16.0183 19.9336C16.0164 19.9356 16.0121 19.9404 16.0071 19.9482ZM12 13C13.1046 13 14 12.1046 14 11C14 9.89543 13.1046 9 12 9C10.8954 9 10 9.89543 10 11C10 12.1046 10.8954 13 12 13ZM8 11C8 13.2091 9.79086 15 12 15C14.2091 15 16 13.2091 16 11C16 8.79086 14.2091 7 12 7C9.79086 7 8 8.79086 8 11Z" fill-rule="evenodd"  fill="#0F1729" >
</path>
</svg>
